<svg width="28" height="28" viewBox="0 0 28 28" fill="none" xmlns="http://www.w3.org/2000/svg">
<path d="M19.2211 17.8855C20.7818 15.9941 21.7675 13.5683 21.7675 10.8957C21.7675 4.89281 16.8801 0 10.8838 0C4.88742 0 0 4.89281 0 10.8957C0 16.8987 4.88742 21.7915 10.8838 21.7915C13.5123 21.7915 15.9765 20.8458 17.8658 19.2423L26.3264 27.7122C26.5317 27.9178 26.7781 28 27.0246 28C27.271 28 27.5174 27.9178 27.7228 27.7122C28.0924 27.3421 28.0924 26.6843 27.7228 26.3142L19.2211 17.8855ZM10.8427 19.8179C5.91419 19.8179 1.93033 15.8297 1.93033 10.8957C1.93033 5.96182 5.91419 1.97357 10.8427 1.97357C15.7712 1.97357 19.755 5.96182 19.755 10.8957C19.755 15.8297 15.7712 19.8179 10.8427 19.8179Z" fill="#9A9595"/>
</svg>
