<svg width="42" height="42" viewBox="0 0 42 42" fill="none" xmlns="http://www.w3.org/2000/svg">
<g opacity="0.8" clip-path="url(#clip0_23_2934)">
<path d="M38.5 17.5002V11.2352C38.4999 10.8258 38.4765 10.4168 38.43 10.0102C38.1962 7.86943 37.3025 5.85438 35.8728 4.24404C34.4431 2.6337 32.548 1.50777 30.45 1.02215C24.223 -0.334125 17.777 -0.334125 11.55 1.02215C9.45214 1.508 7.5572 2.63401 6.1275 4.24431C4.6978 5.8546 3.80406 7.86952 3.57 10.0102C3.52346 10.4168 3.50009 10.8258 3.5 11.2352V17.5002C2.57174 17.5002 1.6815 17.8689 1.02513 18.5253C0.368749 19.1817 0 20.0719 0 21.0002L0 22.7502C0 23.6784 0.368749 24.5686 1.02513 25.225C1.6815 25.8814 2.57174 26.2502 3.5 26.2502V29.7502C3.49918 31.1087 3.8151 32.4487 4.42265 33.6638C5.03021 34.8789 5.91268 35.9357 7 36.7502V37.6252C6.99891 38.7101 7.401 39.7568 8.1282 40.5619C8.85541 41.3671 9.85585 41.8734 10.9353 41.9824C12.0148 42.0914 13.0963 41.7955 13.9698 41.152C14.8433 40.5085 15.4466 39.5634 15.6625 38.5002H26.3375C26.5534 39.5634 27.1567 40.5085 28.0302 41.152C28.9037 41.7955 29.9852 42.0914 31.0647 41.9824C32.1441 41.8734 33.1446 41.3671 33.8718 40.5619C34.599 39.7568 35.0011 38.7101 35 37.6252V36.7502C36.0873 35.9357 36.9698 34.8789 37.5773 33.6638C38.1849 32.4487 38.5008 31.1087 38.5 29.7502V26.2502C39.4283 26.2502 40.3185 25.8814 40.9749 25.225C41.6312 24.5686 42 23.6784 42 22.7502V21.0002C42 20.0719 41.6312 19.1817 40.9749 18.5253C40.3185 17.8689 39.4283 17.5002 38.5 17.5002ZM7 22.7502V12.2502H35V22.7502H7ZM12.341 4.43115C18.0492 3.1894 23.9578 3.1894 29.666 4.43115C30.775 4.6896 31.8025 5.21959 32.6559 5.97347C33.5094 6.72735 34.1621 7.6815 34.5555 8.75015H28C28 8.28602 27.8156 7.8409 27.4874 7.51272C27.1592 7.18453 26.7141 7.00015 26.25 7.00015H15.75C15.2859 7.00015 14.8408 7.18453 14.5126 7.51272C14.1844 7.8409 14 8.28602 14 8.75015H7.4445C7.83851 7.68067 8.49232 6.72597 9.34708 5.97202C10.2018 5.21808 11.2307 4.68856 12.341 4.43115ZM29.75 35.0002H12.25C10.8576 35.0002 9.52226 34.447 8.53769 33.4625C7.55312 32.4779 7 31.1425 7 29.7502V26.2502H10.5V28.0002C10.5 28.4643 10.6844 28.9094 11.0126 29.2376C11.3408 29.5658 11.7859 29.7502 12.25 29.7502C12.7141 29.7502 13.1592 29.5658 13.4874 29.2376C13.8156 28.9094 14 28.4643 14 28.0002V26.2502H28V28.0002C28 28.4643 28.1844 28.9094 28.5126 29.2376C28.8407 29.5658 29.2859 29.7502 29.75 29.7502C30.2141 29.7502 30.6593 29.5658 30.9874 29.2376C31.3156 28.9094 31.5 28.4643 31.5 28.0002V26.2502H35V29.7502C35 31.1425 34.4469 32.4779 33.4623 33.4625C32.4777 34.447 31.1424 35.0002 29.75 35.0002Z" fill="#517664"/>
</g>
<defs>
<clipPath id="clip0_23_2934">
<rect width="42" height="42" fill="white"/>
</clipPath>
</defs>
</svg>
