<svg width="22" height="22" viewBox="0 0 22 22" fill="none" xmlns="http://www.w3.org/2000/svg">
<path d="M8 5.75119C8.00021 5.95026 8.09376 6.14112 8.26009 6.2818L12.7952 10.1222C12.9325 10.2384 13.0414 10.3763 13.1156 10.5282C13.1899 10.68 13.2282 10.8428 13.2282 11.0072C13.2282 11.1715 13.1899 11.3343 13.1156 11.4861C13.0414 11.638 12.9325 11.776 12.7952 11.8922L8.26601 15.7275C8.10449 15.8691 8.01512 16.0588 8.01714 16.2557C8.01916 16.4525 8.11241 16.6409 8.27681 16.7801C8.44121 16.9193 8.6636 16.9983 8.89608 17C9.12857 17.0017 9.35255 16.926 9.51978 16.7892L14.049 12.9569C14.658 12.4402 15 11.7399 15 11.0099C15 10.2799 14.658 9.57967 14.049 9.06295L9.51387 5.22009C9.38986 5.11501 9.23183 5.04345 9.05978 5.01445C8.88773 4.98545 8.70938 5.00032 8.54731 5.05717C8.38524 5.11403 8.24673 5.21032 8.14931 5.33386C8.05188 5.4574 7.99992 5.60264 8 5.75119Z" fill="#517664"/>
</svg>
