<svg width="28" height="28" viewBox="0 0 28 28" fill="none" xmlns="http://www.w3.org/2000/svg">
<path d="M12.2986 3.85545e-07C12.1543 7.68068e-05 12.0147 0.0513963 11.9048 0.144808C11.7948 0.23822 11.7216 0.36765 11.6982 0.510021L11.1061 4.13485C10.3941 4.34195 9.71518 4.62138 9.07533 4.96943L6.08391 2.83305C5.96679 2.74942 5.82383 2.70999 5.68039 2.72174C5.53696 2.73349 5.40233 2.79567 5.30038 2.89725L2.93198 5.26308C2.83076 5.36435 2.76849 5.49805 2.7561 5.64069C2.7437 5.78332 2.78198 5.92576 2.8642 6.04297L4.96866 9.05316C4.61522 9.69669 4.32957 10.3794 4.11737 11.098L0.507687 11.6984C0.36574 11.7223 0.236856 11.7957 0.143914 11.9056C0.0509716 12.0155 -1.63124e-05 12.1548 1.00317e-06 12.2987V15.6466C-0.000258634 15.7896 0.0498883 15.9282 0.14164 16.038C0.233392 16.1478 0.360885 16.2218 0.501742 16.2469L4.1138 16.8865C4.32485 17.6039 4.60869 18.2871 4.96272 18.9314L2.8321 21.9119C2.74847 22.029 2.70903 22.1719 2.72079 22.3153C2.73254 22.4588 2.79472 22.5934 2.89631 22.6953L5.26353 25.0635C5.36459 25.1646 5.49799 25.2269 5.64038 25.2395C5.78276 25.2521 5.92504 25.2142 6.04229 25.1325L9.05869 23.0211C9.70042 23.3712 10.381 23.6527 11.0954 23.8616L11.6982 27.4912C11.7218 27.6333 11.7952 27.7625 11.9051 27.8556C12.015 27.9488 12.1545 28 12.2986 28H15.6467C15.79 28.0002 15.9287 27.9499 16.0385 27.8579C16.1484 27.7659 16.2222 27.6382 16.2471 27.4971L16.8927 23.8533C17.6042 23.6411 18.2815 23.3555 18.9199 23.0032L21.9565 25.1337C22.0737 25.2159 22.2162 25.2542 22.3588 25.2418C22.5015 25.2294 22.6352 25.1671 22.7365 25.0659L25.1037 22.6965C25.2057 22.5943 25.2681 22.4591 25.2796 22.3152C25.2911 22.1712 25.2511 22.0278 25.1667 21.9107L23.0016 18.9052C23.3478 18.27 23.6267 17.5967 23.8339 16.8901L27.4971 16.2481C27.6381 16.2232 27.7659 16.1494 27.8579 16.0395C27.9499 15.9297 28.0002 15.791 28 15.6478V12.2999C27.9999 12.1557 27.9486 12.0161 27.8552 11.9061C27.7618 11.7962 27.6323 11.723 27.4899 11.6996L23.8327 11.1016C23.6241 10.3958 23.3444 9.72374 22.998 9.08882L25.1334 6.04654C25.2156 5.92933 25.2539 5.78689 25.2415 5.64425C25.2291 5.50162 25.1669 5.36792 25.0656 5.26664L22.6972 2.89963C22.595 2.79762 22.4598 2.73528 22.3159 2.72373C22.1719 2.71219 22.0285 2.7522 21.9113 2.83662L18.914 4.99202C18.2753 4.64119 17.5975 4.35704 16.8844 4.14674L16.2471 0.504076C16.2225 0.362795 16.1487 0.234757 16.0389 0.142538C15.929 0.0503182 15.7901 -0.000160952 15.6467 3.85545e-07H12.2986ZM12.817 1.21739H15.1355L15.7418 4.67816C15.762 4.79423 15.8154 4.90196 15.8956 4.98826C15.9758 5.07457 16.0793 5.13576 16.1936 5.1644C17.0839 5.38625 17.9201 5.7379 18.6833 6.1999C18.7854 6.26172 18.9033 6.2922 19.0225 6.28755C19.1417 6.2829 19.257 6.24332 19.3539 6.17374L22.2026 4.12653L23.8422 5.76597L21.8138 8.65608C21.7461 8.75249 21.7078 8.86649 21.7036 8.98425C21.6993 9.102 21.7294 9.21845 21.7901 9.31946C22.2475 10.0809 22.5945 10.9117 22.8161 11.797C22.845 11.9124 22.907 12.0167 22.9945 12.0972C23.0819 12.1777 23.1911 12.2308 23.3084 12.25L26.7825 12.8183V15.1365L23.3012 15.7476C23.1851 15.7682 23.0774 15.8221 22.9913 15.9027C22.9051 15.9833 22.8443 16.0872 22.8161 16.2018C22.5971 17.086 22.2499 17.9168 21.7924 18.6782C21.731 18.7802 21.7009 18.898 21.7058 19.0169C21.7106 19.1359 21.7503 19.2508 21.8198 19.3475L23.8767 22.2019L22.2371 23.8426L19.3515 21.8179C19.2546 21.7501 19.14 21.7119 19.0218 21.7081C18.9035 21.7043 18.7868 21.735 18.6857 21.7965C17.9263 22.2585 17.0892 22.6118 16.202 22.8368C16.0882 22.8655 15.9852 22.9264 15.9052 23.0122C15.8253 23.0981 15.7718 23.2052 15.7513 23.3207L15.1366 26.7826H12.8146L12.2415 23.3361C12.222 23.2189 12.1686 23.1099 12.0879 23.0227C12.0072 22.9354 11.9027 22.8737 11.7873 22.8451C10.8965 22.6256 10.0566 22.2744 9.28815 21.8132C9.18726 21.7528 9.07103 21.7229 8.95351 21.7271C8.83599 21.7313 8.7222 21.7695 8.6259 21.837L5.76289 23.8426L4.12212 22.1996L6.14573 19.3713C6.21489 19.2744 6.25412 19.1593 6.25855 19.0403C6.26299 18.9214 6.23245 18.8037 6.1707 18.7019C5.70439 17.9315 5.35172 17.0917 5.12917 16.197C5.1007 16.0831 5.03986 15.9798 4.954 15.8996C4.86814 15.8194 4.76092 15.7658 4.64527 15.7452L1.2175 15.1365V12.8147L4.64289 12.2452C4.75999 12.2258 4.86885 12.1726 4.95609 12.0921C5.04334 12.0117 5.10515 11.9074 5.13393 11.7923C5.35839 10.8945 5.71089 10.0549 6.17546 9.28618C6.23672 9.18526 6.26731 9.0687 6.26351 8.95071C6.25971 8.83272 6.22168 8.71837 6.15406 8.6216L4.15423 5.76359L5.79618 4.12296L8.63423 6.15116C8.73078 6.21999 8.84533 6.25914 8.96382 6.26379C9.08232 6.26843 9.19959 6.23838 9.30123 6.17731C10.0656 5.71827 10.9075 5.36996 11.7992 5.15133C11.9152 5.12279 12.0201 5.0608 12.1011 4.97308C12.1821 4.88536 12.2354 4.77577 12.2546 4.65795L12.817 1.21739ZM14 9.13043C11.3176 9.13043 9.13002 11.3178 9.13002 14C9.13002 16.6822 11.3176 18.8696 14 18.8696C16.6824 18.8696 18.87 16.6822 18.87 14C18.87 11.3178 16.6824 9.13043 14 9.13043ZM14 10.3478C16.0244 10.3478 17.6525 11.9757 17.6525 14C17.6525 16.0242 16.0244 17.6522 14 17.6522C11.9756 17.6522 10.3475 16.0242 10.3475 14C10.3475 11.9757 11.9756 10.3478 14 10.3478Z" fill="#9A9595"/>
</svg>
