<svg width="34" height="30" viewBox="0 0 34 30" fill="none" xmlns="http://www.w3.org/2000/svg">
<path d="M29 29C31.2091 29 33 27.2091 33 25C33 22.7909 31.2091 21 29 21C26.7909 21 25 22.7909 25 25C25 27.2091 26.7909 29 29 29Z" stroke="#9A9595" stroke-width="2" stroke-linecap="round" stroke-linejoin="round"/>
<path d="M7.66667 1H23.6667C25.0812 1 26.4377 1.5619 27.4379 2.5621C28.4381 3.56229 29 4.91885 29 6.33333C29 7.74782 28.4381 9.10438 27.4379 10.1046C26.4377 11.1048 25.0812 11.6667 23.6667 11.6667H7.66667C5.89856 11.6667 4.20286 12.369 2.95262 13.6193C1.70238 14.8695 1 16.5652 1 18.3333C1 20.1014 1.70238 21.7971 2.95262 23.0474C4.20286 24.2976 5.89856 25 7.66667 25H25" stroke="#9A9595" stroke-width="2" stroke-linecap="round" stroke-linejoin="round"/>
</svg>
