<svg width="8" height="87" viewBox="0 0 8 87" fill="none" xmlns="http://www.w3.org/2000/svg">
<path d="M4 0.938904C1.79086 0.938904 0 2.72976 0 4.9389C0 7.14804 1.79086 8.9389 4 8.9389C6.20914 8.9389 8 7.14804 8 4.9389C8 2.72976 6.20914 0.938904 4 0.938904ZM4 78.0489C1.79086 78.0489 0 79.8398 0 82.0489C0 84.258 1.79086 86.0489 4 86.0489C6.20914 86.0489 8 84.258 8 82.0489C8 79.8398 6.20914 78.0489 4 78.0489ZM3.25 6.42179C3.25 6.836 3.58579 7.17179 4 7.17179C4.41421 7.17179 4.75 6.836 4.75 6.42179H3.25ZM4.75 9.38756C4.75 8.97334 4.41421 8.63756 4 8.63756C3.58579 8.63756 3.25 8.97334 3.25 9.38756H4.75ZM3.25 12.3533C3.25 12.7675 3.58579 13.1033 4 13.1033C4.41421 13.1033 4.75 12.7675 4.75 12.3533H3.25ZM4.75 15.3191C4.75 14.9049 4.41421 14.5691 4 14.5691C3.58579 14.5691 3.25 14.9049 3.25 15.3191H4.75ZM3.25 18.2849C3.25 18.6991 3.58579 19.0349 4 19.0349C4.41421 19.0349 4.75 18.6991 4.75 18.2849H3.25ZM4.75 21.2506C4.75 20.8364 4.41421 20.5006 4 20.5006C3.58579 20.5006 3.25 20.8364 3.25 21.2506H4.75ZM3.25 24.2164C3.25 24.6306 3.58579 24.9664 4 24.9664C4.41421 24.9664 4.75 24.6306 4.75 24.2164H3.25ZM4.75 27.1822C4.75 26.768 4.41421 26.4322 4 26.4322C3.58579 26.4322 3.25 26.768 3.25 27.1822H4.75ZM3.25 30.1479C3.25 30.5622 3.58579 30.8979 4 30.8979C4.41421 30.8979 4.75 30.5622 4.75 30.1479H3.25ZM4.75 33.1137C4.75 32.6995 4.41421 32.3637 4 32.3637C3.58579 32.3637 3.25 32.6995 3.25 33.1137H4.75ZM3.25 36.0795C3.25 36.4937 3.58579 36.8295 4 36.8295C4.41421 36.8295 4.75 36.4937 4.75 36.0795H3.25ZM4.75 39.0452C4.75 38.631 4.41421 38.2952 4 38.2952C3.58579 38.2952 3.25 38.631 3.25 39.0452H4.75ZM3.25 42.011C3.25 42.4252 3.58579 42.761 4 42.761C4.41421 42.761 4.75 42.4252 4.75 42.011H3.25ZM4.75 44.9768C4.75 44.5626 4.41421 44.2268 4 44.2268C3.58579 44.2268 3.25 44.5626 3.25 44.9768H4.75ZM3.25 47.9426C3.25 48.3568 3.58579 48.6926 4 48.6926C4.41421 48.6926 4.75 48.3568 4.75 47.9426H3.25ZM4.75 50.9083C4.75 50.4941 4.41421 50.1583 4 50.1583C3.58579 50.1583 3.25 50.4941 3.25 50.9083H4.75ZM3.25 53.8741C3.25 54.2883 3.58579 54.6241 4 54.6241C4.41421 54.6241 4.75 54.2883 4.75 53.8741H3.25ZM4.75 56.8399C4.75 56.4257 4.41421 56.0899 4 56.0899C3.58579 56.0899 3.25 56.4257 3.25 56.8399H4.75ZM3.25 59.8056C3.25 60.2199 3.58579 60.5556 4 60.5556C4.41421 60.5556 4.75 60.2199 4.75 59.8056H3.25ZM4.75 62.7714C4.75 62.3572 4.41421 62.0214 4 62.0214C3.58579 62.0214 3.25 62.3572 3.25 62.7714H4.75ZM3.25 65.7372C3.25 66.1514 3.58579 66.4872 4 66.4872C4.41421 66.4872 4.75 66.1514 4.75 65.7372H3.25ZM4.75 68.703C4.75 68.2887 4.41421 67.953 4 67.953C3.58579 67.953 3.25 68.2887 3.25 68.703H4.75ZM3.25 71.6687C3.25 72.0829 3.58579 72.4187 4 72.4187C4.41421 72.4187 4.75 72.0829 4.75 71.6687H3.25ZM4.75 74.6345C4.75 74.2203 4.41421 73.8845 4 73.8845C3.58579 73.8845 3.25 74.2203 3.25 74.6345H4.75ZM3.25 77.6003C3.25 78.0145 3.58579 78.3503 4 78.3503C4.41421 78.3503 4.75 78.0145 4.75 77.6003H3.25ZM4.75 80.566C4.75 80.1518 4.41421 79.816 4 79.816C3.58579 79.816 3.25 80.1518 3.25 80.566H4.75ZM3.25 4.9389V6.42179H4.75V4.9389H3.25ZM3.25 9.38756V12.3533H4.75L4.75 9.38756H3.25ZM3.25 15.3191V18.2849H4.75V15.3191H3.25ZM3.25 21.2506V24.2164H4.75L4.75 21.2506H3.25ZM3.25 27.1822V30.1479H4.75V27.1822H3.25ZM3.25 33.1137L3.25 36.0795H4.75V33.1137H3.25ZM3.25 39.0452V42.011H4.75V39.0452H3.25ZM3.25 44.9768L3.25 47.9426H4.75L4.75 44.9768H3.25ZM3.25 50.9083V53.8741H4.75V50.9083H3.25ZM3.25 56.8399L3.25 59.8056H4.75V56.8399H3.25ZM3.25 62.7714V65.7372H4.75V62.7714H3.25ZM3.25 68.703L3.25 71.6687H4.75L4.75 68.703H3.25ZM3.25 74.6345V77.6003H4.75V74.6345H3.25ZM3.25 80.566L3.25 82.0489H4.75V80.566H3.25Z" fill="#BDB5B5"/>
</svg>
