<svg width="8" height="39" viewBox="0 0 8 39" fill="none" xmlns="http://www.w3.org/2000/svg">
<path d="M4 0C1.79086 9.65645e-08 -9.65645e-08 1.79086 0 4C9.65645e-08 6.20914 1.79086 8 4 8C6.20914 8 8 6.20914 8 4C8 1.79086 6.20914 -9.65645e-08 4 0ZM4 31C1.79086 31 1.25849e-06 32.7909 1.35505e-06 35C1.45162e-06 37.2091 1.79086 39 4 39C6.20914 39 8 37.2091 8 35C8 32.7909 6.20914 31 4 31ZM3.25 5.55C3.25 5.96421 3.58579 6.3 4 6.3C4.41421 6.3 4.75 5.96421 4.75 5.55L3.25 5.55ZM4.75 8.65C4.75 8.23579 4.41421 7.9 4 7.9C3.58579 7.9 3.25 8.23579 3.25 8.65L4.75 8.65ZM3.25 11.75C3.25 12.1642 3.58579 12.5 4 12.5C4.41421 12.5 4.75 12.1642 4.75 11.75L3.25 11.75ZM4.75 14.85C4.75 14.4358 4.41421 14.1 4 14.1C3.58579 14.1 3.25 14.4358 3.25 14.85L4.75 14.85ZM3.25 17.95C3.25 18.3642 3.58579 18.7 4 18.7C4.41421 18.7 4.75 18.3642 4.75 17.95L3.25 17.95ZM4.75 21.05C4.75 20.6358 4.41421 20.3 4 20.3C3.58579 20.3 3.25 20.6358 3.25 21.05L4.75 21.05ZM3.25 24.15C3.25 24.5642 3.58579 24.9 4 24.9C4.41421 24.9 4.75 24.5642 4.75 24.15L3.25 24.15ZM4.75 27.25C4.75 26.8358 4.41421 26.5 4 26.5C3.58579 26.5 3.25 26.8358 3.25 27.25L4.75 27.25ZM3.25 30.35C3.25 30.7642 3.58579 31.1 4 31.1C4.41421 31.1 4.75 30.7642 4.75 30.35L3.25 30.35ZM4.75 33.45C4.75 33.0358 4.41421 32.7 4 32.7C3.58579 32.7 3.25 33.0358 3.25 33.45L4.75 33.45ZM3.25 4L3.25 5.55L4.75 5.55L4.75 4L3.25 4ZM3.25 8.65L3.25 11.75L4.75 11.75L4.75 8.65L3.25 8.65ZM3.25 14.85L3.25 17.95L4.75 17.95L4.75 14.85L3.25 14.85ZM3.25 21.05L3.25 24.15L4.75 24.15L4.75 21.05L3.25 21.05ZM3.25 27.25L3.25 30.35L4.75 30.35L4.75 27.25L3.25 27.25ZM3.25 33.45L3.25 35L4.75 35L4.75 33.45L3.25 33.45Z" fill="#BDB5B5"/>
</svg>
