<svg width="40" height="40" viewBox="0 0 40 40" fill="none" xmlns="http://www.w3.org/2000/svg">
<path d="M38.0051 18.0601V5.87383C38.0051 3.55996 36.2411 1.84384 34.0991 2.03667H33.9911C30.2111 2.38375 24.4691 4.44694 21.2651 6.60655L20.9591 6.81866C20.4371 7.16574 19.5731 7.16574 19.0511 6.81866L18.6011 6.52942C15.3971 4.3891 9.67313 2.34518 5.89313 2.01738C3.75113 1.82456 2.00513 3.55996 2.00513 5.85455V29.1474C2.00513 30.9985 3.40913 32.7339 5.13713 32.9653L5.65913 33.0424C9.56513 33.6016 15.5951 35.7226 19.0511 37.7473L19.1231 37.7858C19.6091 38.0751 20.3831 38.0751 20.8511 37.7858C24.3071 35.7419 30.3551 33.6016 34.2791 33.0424L34.8731 32.9653C36.6011 32.7339 38.0051 30.9985 38.0051 29.1474V25.8308" stroke="#517664" stroke-width="2.5" stroke-linecap="round" stroke-linejoin="round"/>
<path d="M20.0051 7.45505V36.3784" stroke="#517664" stroke-width="2.5" stroke-linecap="round" stroke-linejoin="round"/>
<path d="M12.3552 13.2397H8.30518" stroke="#517664" stroke-width="2.5" stroke-linecap="round" stroke-linejoin="round"/>
<path d="M13.7052 19.0244H8.30518" stroke="#517664" stroke-width="2.5" stroke-linecap="round" stroke-linejoin="round"/>
</svg>
