<svg width="18" height="16" viewBox="0 0 18 16" fill="none" xmlns="http://www.w3.org/2000/svg">
<path d="M2.59823 2.73713L1.81526 3.18916C1.37131 3.44746 1 4.07706 1 4.59366V12.4476C1 13.9813 2.0897 14.6109 3.41349 13.8521L5.31038 12.7705C5.72204 12.5364 6.40815 12.5122 6.83596 12.7301L11.0737 14.853C11.5015 15.0629 12.1876 15.0467 12.5993 14.8127L16.0944 12.8108C16.5384 12.5525 16.9097 11.9229 16.9097 11.4063V3.54432C16.9097 2.01067 15.82 1.38106 14.4962 2.13982L12.5993 3.22145C12.1876 3.45553 11.5015 3.47975 11.0737 3.26181L6.83596 1.14698C6.40815 0.937108 5.72204 0.953252 5.31038 1.18734" stroke="#517664" stroke-linecap="round" stroke-linejoin="round"/>
<path d="M6.06226 1.53442V12.0279" stroke="#517664" stroke-linecap="round" stroke-linejoin="round"/>
<path d="M11.8498 3.64941V14.4496" stroke="#517664" stroke-linecap="round" stroke-linejoin="round"/>
</svg>
