<svg width="28" height="28" viewBox="0 0 28 28" fill="none" xmlns="http://www.w3.org/2000/svg">
<g clip-path="url(#clip0_103_239)">
<path d="M24.5 21.525C23.275 20.3 22.75 18.9 22.75 17.15V14C22.75 9.1 18.9 5.25 14 5.25C9.1 5.25 5.25 9.1 5.25 14V17.15C5.25 18.725 4.55 20.3 3.5 21.525L2.1 22.925C1.75 23.275 1.75 23.625 1.75 23.975C1.925 24.325 2.275 24.5 2.625 24.5H9.1C9.8 26.6 11.725 28 14 28C16.275 28 18.2 26.6 18.9 24.5H21C21.525 24.5 21.875 24.15 21.875 23.625C21.875 23.1 21.525 22.75 21 22.75H4.725C6.125 21.35 7 19.25 7 17.15V14C7 10.15 10.15 7 14 7C17.85 7 21 10.15 21 14V17.15C21 19.25 21.875 21.175 23.275 22.75L24.675 24.15C24.85 24.325 25.025 24.325 25.375 24.325C25.725 24.325 25.9 24.325 26.075 24.15C26.425 23.8 26.425 23.275 26.075 22.925L24.5 21.525ZM14 26.25C12.775 26.25 11.55 25.55 11.025 24.5H17.15C16.45 25.55 15.225 26.25 14 26.25ZM6.125 3.5C4.725 3.5 3.5 4.725 3.5 6.125C3.5 6.65 3.85 7 4.375 7C4.9 7 5.25 6.65 5.25 6.125C5.25 5.6 5.6 5.25 6.125 5.25C6.65 5.25 7 4.9 7 4.375C7 3.85 6.65 3.5 6.125 3.5Z" fill="#9A9595"/>
<path d="M6.125 1.75C6.65 1.75 7 1.4 7 0.875C7 0.35 6.65 0 6.125 0C2.8 0 0 2.8 0 6.125C0 6.65 0.35 7 0.875 7C1.4 7 1.75 6.65 1.75 6.125C1.75 3.675 3.675 1.75 6.125 1.75ZM22.75 6.125C22.75 6.65 23.1 7 23.625 7C24.15 7 24.5 6.65 24.5 6.125C24.5 4.725 23.275 3.5 21.875 3.5C21.35 3.5 21 3.85 21 4.375C21 4.9 21.35 5.25 21.875 5.25C22.4 5.25 22.75 5.6 22.75 6.125Z" fill="#9A9595"/>
<path d="M21.875 0C21.35 0 21 0.35 21 0.875C21 1.4 21.35 1.75 21.875 1.75C24.325 1.75 26.25 3.675 26.25 6.125C26.25 6.65 26.6 7 27.125 7C27.65 7 28 6.65 28 6.125C28 2.8 25.2 0 21.875 0Z" fill="#9A9595"/>
</g>
<defs>
<clipPath id="clip0_103_239">
<rect width="28" height="28" fill="white"/>
</clipPath>
</defs>
</svg>
