<svg width="36" height="36" viewBox="0 0 36 36" fill="none" xmlns="http://www.w3.org/2000/svg">
<path d="M31.5039 27.675C29.9289 26.1 29.2539 24.3 29.2539 22.05V18C29.2539 11.7 24.3039 6.75 18.0039 6.75C11.7039 6.75 6.75391 11.7 6.75391 18V22.05C6.75391 24.075 5.85391 26.1 4.50391 27.675L2.70391 29.475C2.25391 29.925 2.25391 30.375 2.25391 30.825C2.47891 31.275 2.92891 31.5 3.37891 31.5H11.7039C12.6039 34.2 15.0789 36 18.0039 36C20.9289 36 23.4039 34.2 24.3039 31.5H27.0039C27.6789 31.5 28.1289 31.05 28.1289 30.375C28.1289 29.7 27.6789 29.25 27.0039 29.25H6.07891C7.87891 27.45 9.00391 24.75 9.00391 22.05V18C9.00391 13.05 13.0539 9 18.0039 9C22.9539 9 27.0039 13.05 27.0039 18V22.05C27.0039 24.75 28.1289 27.225 29.9289 29.25L31.7289 31.05C31.9539 31.275 32.1789 31.275 32.6289 31.275C33.0789 31.275 33.3039 31.275 33.5289 31.05C33.9789 30.6 33.9789 29.925 33.5289 29.475L31.5039 27.675ZM18.0039 33.75C16.4289 33.75 14.8539 32.85 14.1789 31.5H22.0539C21.1539 32.85 19.5789 33.75 18.0039 33.75ZM7.87891 4.5C6.07891 4.5 4.50391 6.075 4.50391 7.875C4.50391 8.55 4.95391 9 5.62891 9C6.30391 9 6.75391 8.55 6.75391 7.875C6.75391 7.2 7.20391 6.75 7.87891 6.75C8.55391 6.75 9.00391 6.3 9.00391 5.625C9.00391 4.95 8.55391 4.5 7.87891 4.5Z" fill="#517664"/>
<path d="M7.87891 2.25C8.55391 2.25 9.00391 1.8 9.00391 1.125C9.00391 0.45 8.55391 0 7.87891 0C3.60391 0 0.00390625 3.6 0.00390625 7.875C0.00390625 8.55 0.453906 9 1.12891 9C1.80391 9 2.25391 8.55 2.25391 7.875C2.25391 4.725 4.72891 2.25 7.87891 2.25ZM29.2539 7.875C29.2539 8.55 29.7039 9 30.3789 9C31.0539 9 31.5039 8.55 31.5039 7.875C31.5039 6.075 29.9289 4.5 28.1289 4.5C27.4539 4.5 27.0039 4.95 27.0039 5.625C27.0039 6.3 27.4539 6.75 28.1289 6.75C28.8039 6.75 29.2539 7.2 29.2539 7.875Z" fill="#517664"/>
<path d="M28.1289 0C27.4539 0 27.0039 0.45 27.0039 1.125C27.0039 1.8 27.4539 2.25 28.1289 2.25C31.2789 2.25 33.7539 4.725 33.7539 7.875C33.7539 8.55 34.2039 9 34.8789 9C35.5539 9 36.0039 8.55 36.0039 7.875C36.0039 3.6 32.4039 0 28.1289 0Z" fill="#517664"/>
</svg>
