<svg width="40" height="40" viewBox="0 0 40 40" fill="none" xmlns="http://www.w3.org/2000/svg">
<path d="M15.3067 9.21818C15.6307 9.66819 15.8647 10.0822 16.0267 10.4782C16.1887 10.8562 16.2788 11.2342 16.2788 11.5762C16.2788 12.0083 16.1527 12.4403 15.9007 12.8543C15.6667 13.2683 15.3247 13.7003 14.8927 14.1323L13.5247 15.5543C13.3267 15.7523 13.2367 15.9864 13.2367 16.2744C13.2367 16.4184 13.2547 16.5444 13.2907 16.6884C13.3447 16.8324 13.3987 16.9404 13.4347 17.0484C13.7587 17.6424 14.3167 18.4164 15.1087 19.3524C15.9187 20.2885 16.7828 21.2425 17.7188 22.1965C18.6908 23.1505 19.6268 24.0326 20.5809 24.8426C21.5169 25.6346 22.2909 26.1746 22.9029 26.4986C22.9929 26.5346 23.1009 26.5886 23.2269 26.6426C23.3709 26.6966 23.5149 26.7146 23.6769 26.7146C23.9829 26.7146 24.2169 26.6066 24.415 26.4086L25.783 25.0586C26.233 24.6086 26.665 24.2666 27.079 24.0506C27.493 23.7985 27.907 23.6725 28.3571 23.6725C28.6991 23.6725 29.0591 23.7445 29.4551 23.9065C29.8511 24.0686 30.2651 24.3026 30.7151 24.6086L36.6733 28.8387C37.1413 29.1627 37.4653 29.5407 37.6633 29.9907C37.8433 30.4407 37.9513 30.8907 37.9513 31.3947C37.9513 32.0428 37.8073 32.7088 37.5013 33.3568C37.1953 34.0048 36.7993 34.6168 36.2773 35.1928C35.3952 36.1649 34.4232 36.8669 33.3252 37.3169C32.2451 37.7669 31.0751 38.0009 29.8151 38.0009C27.979 38.0009 26.017 37.5689 23.9469 36.6869C21.8769 35.8048 19.8068 34.6168 17.7548 33.1228C15.6847 31.6107 13.7227 29.9367 11.8506 28.0827C9.99659 26.2106 8.32255 24.2486 6.82851 22.1965C5.35248 20.1445 4.16445 18.0924 3.30043 16.0584C2.43641 14.0063 2.00439 12.0443 2.00439 10.1722C2.00439 8.94817 2.2204 7.77814 2.65241 6.69812C3.08442 5.60009 3.76844 4.59206 4.72246 3.69204C5.87449 2.55801 7.13452 2 8.46656 2C8.97057 2 9.47458 2.108 9.92459 2.32401C10.3926 2.54001 10.8066 2.86402 11.1306 3.33203" stroke="#517664" stroke-width="2.5" stroke-miterlimit="10" stroke-linecap="round" stroke-linejoin="round"/>
<path d="M31.7052 14.6003C31.7052 13.5203 30.8592 11.8643 29.5991 10.5142C28.4471 9.2722 26.9171 8.30017 25.405 8.30017" stroke="#517664" stroke-width="2.5" stroke-linecap="round" stroke-linejoin="round"/>
<path d="M29.0231 2.52201C27.8711 2.18 26.6651 2 25.405 2" stroke="#517664" stroke-width="2.5" stroke-linecap="round" stroke-linejoin="round"/>
<path d="M38.0045 14.6004C38.0045 10.3343 35.8805 6.55416 32.6404 4.2861" stroke="#517664" stroke-width="2.5" stroke-linecap="round" stroke-linejoin="round"/>
</svg>
