<svg width="40" height="40" viewBox="0 0 40 40" fill="none" xmlns="http://www.w3.org/2000/svg">
<path d="M30.8434 3.83917C32.0678 3.19167 33.2562 2.63411 34.3725 2.18446C35.4348 1.78876 36.4611 2.07654 37.1093 2.74202C37.7936 3.42549 38.1177 4.45069 37.6855 5.51187C34.9127 12.4185 27.9625 21.8072 22.1467 26.4656L18.5996 29.3074C18.1495 29.6311 17.6994 29.9189 17.1952 30.1167C17.1952 29.793 17.1772 29.4333 17.1232 29.0915C16.9251 27.5807 16.2409 26.1778 15.0345 24.9727C13.8101 23.7497 12.3156 23.0302 10.7852 22.8324C10.4251 22.8144 10.0649 22.7784 9.70483 22.8144C9.9029 22.2568 10.209 21.7352 10.5871 21.3036L13.396 17.7603C16.0068 14.5049 20.1121 10.8897 24.4154 7.85005" stroke="#517664" stroke-width="2.5" stroke-linecap="round" stroke-linejoin="round"/>
<path d="M17.2124 30.0982C17.2124 32.0766 16.4562 33.9652 15.0337 35.404C13.9354 36.5012 12.4409 37.2566 10.6584 37.4904L6.229 37.976C3.81625 38.2458 1.74562 36.1954 2.0337 33.7493L2.51985 29.3248C2.95199 25.3858 6.24701 22.8678 9.74008 22.7958C10.1002 22.7779 10.4783 22.7958 10.8204 22.8138C12.3509 23.0117 13.8454 23.7131 15.0697 24.9542C16.2761 26.1592 16.9603 27.5621 17.1584 29.073C17.1764 29.4147 17.2124 29.7564 17.2124 30.0982Z" stroke="#517664" stroke-width="2.5" stroke-linecap="round" stroke-linejoin="round"/>
<path d="M24.0733 24.4334C24.0733 19.739 20.2561 15.926 15.5566 15.926" stroke="#517664" stroke-width="2.5" stroke-linecap="round" stroke-linejoin="round"/>
<path d="M34.6624 21.3034L35.9948 22.6164C38.6777 25.2963 38.6777 27.9403 35.9948 30.6202L30.6652 35.944C28.0184 38.588 25.3355 38.588 22.6887 35.944" stroke="#517664" stroke-width="2.5" stroke-linecap="round"/>
<path d="M4.03419 17.3107C1.38737 14.6307 1.38737 11.9867 4.03419 9.30682L9.36383 3.98296C12.0106 1.33901 14.6935 1.33901 17.3403 3.98296L18.6727 5.31393" stroke="#517664" stroke-width="2.5" stroke-linecap="round"/>
<path d="M18.6916 5.33197L12.0295 11.9868" stroke="#517664" stroke-width="2.5" stroke-linecap="round"/>
<path d="M34.6614 21.3034L29.3318 26.6093" stroke="#517664" stroke-width="2.5" stroke-linecap="round"/>
</svg>
