<svg width="40" height="35" viewBox="0 0 40 35" fill="none" xmlns="http://www.w3.org/2000/svg">
<path d="M29.8682 2.19478C29.8677 2.77474 29.6039 3.33077 29.1349 3.74061L16.3482 14.9289C15.9612 15.2675 15.6542 15.6695 15.4447 16.1119C15.2353 16.5543 15.1275 17.0284 15.1275 17.5073C15.1275 17.9861 15.2353 18.4603 15.4447 18.9027C15.6542 19.3451 15.9612 19.7471 16.3482 20.0856L29.1182 31.2594C29.5736 31.6719 29.8256 32.2245 29.8199 32.798C29.8142 33.3716 29.5513 33.9203 29.0878 34.3258C28.6243 34.7314 27.9972 34.9615 27.3417 34.9665C26.6863 34.9714 26.0547 34.751 25.5832 34.3525L12.8132 23.1875C11.0962 21.6821 10.1318 19.6421 10.1318 17.5153C10.1318 15.3885 11.0962 13.3485 12.8132 11.8431L25.5999 0.647488C25.9495 0.34136 26.3951 0.132861 26.8802 0.0483741C27.3653 -0.0361132 27.8682 0.00720827 28.3251 0.172857C28.7821 0.338505 29.1726 0.619035 29.4473 0.97895C29.722 1.33887 29.8685 1.76199 29.8682 2.19478Z" fill="#BDB5B5"/>
</svg>
